<?xml version="1.0" encoding="UTF-8"?>
<svg xmlns="http://www.w3.org/2000/svg" width="1600" height="800" viewBox="0 0 1600 800">
<defs>
  <linearGradient id="bg" x1="0%" y1="0%" x2="100%" y2="100%">
    <stop offset="0%" stop-color="#0B1220"/>
    <stop offset="45%" stop-color="#16213E"/>
    <stop offset="100%" stop-color="#2E1065"/>
  </linearGradient>
  <linearGradient id="line" x1="0%" y1="0%" x2="100%" y2="0%">
    <stop offset="0%" stop-color="#3B82F6"/>
    <stop offset="100%" stop-color="#8B5CF6"/>
  </linearGradient>
  <radialGradient id="glow1">
    <stop offset="0%" stop-color="#2563EB" stop-opacity="0.55"/>
    <stop offset="100%" stop-color="#2563EB" stop-opacity="0"/>
  </radialGradient>
  <radialGradient id="glow2">
    <stop offset="0%" stop-color="#8B5CF6" stop-opacity="0.45"/>
    <stop offset="100%" stop-color="#8B5CF6" stop-opacity="0"/>
  </radialGradient>
  <filter id="shadow" x="-20%" y="-20%" width="140%" height="140%">
    <feDropShadow dx="0" dy="12" stdDeviation="16" flood-color="#000000" flood-opacity="0.35"/>
  </filter>
</defs>

<rect width="1600" height="800" fill="url(#bg)"/>

<circle cx="1320" cy="140" r="260" fill="url(#glow1)"/>
<circle cx="260" cy="680" r="260" fill="url(#glow2)"/>

<g opacity="0.06" stroke="#E2E8F0" stroke-width="1">
<line x1="0" y1="0" x2="0" y2="800"/>
<line x1="50" y1="0" x2="50" y2="800"/>
<line x1="100" y1="0" x2="100" y2="800"/>
<line x1="150" y1="0" x2="150" y2="800"/>
<line x1="200" y1="0" x2="200" y2="800"/>
<line x1="250" y1="0" x2="250" y2="800"/>
<line x1="300" y1="0" x2="300" y2="800"/>
<line x1="350" y1="0" x2="350" y2="800"/>
<line x1="400" y1="0" x2="400" y2="800"/>
<line x1="450" y1="0" x2="450" y2="800"/>
<line x1="500" y1="0" x2="500" y2="800"/>
<line x1="550" y1="0" x2="550" y2="800"/>
<line x1="600" y1="0" x2="600" y2="800"/>
<line x1="650" y1="0" x2="650" y2="800"/>
<line x1="700" y1="0" x2="700" y2="800"/>
<line x1="750" y1="0" x2="750" y2="800"/>
<line x1="800" y1="0" x2="800" y2="800"/>
<line x1="850" y1="0" x2="850" y2="800"/>
<line x1="900" y1="0" x2="900" y2="800"/>
<line x1="950" y1="0" x2="950" y2="800"/>
<line x1="1000" y1="0" x2="1000" y2="800"/>
<line x1="1050" y1="0" x2="1050" y2="800"/>
<line x1="1100" y1="0" x2="1100" y2="800"/>
<line x1="1150" y1="0" x2="1150" y2="800"/>
<line x1="1200" y1="0" x2="1200" y2="800"/>
<line x1="1250" y1="0" x2="1250" y2="800"/>
<line x1="1300" y1="0" x2="1300" y2="800"/>
<line x1="1350" y1="0" x2="1350" y2="800"/>
<line x1="1400" y1="0" x2="1400" y2="800"/>
<line x1="1450" y1="0" x2="1450" y2="800"/>
<line x1="1500" y1="0" x2="1500" y2="800"/>
<line x1="1550" y1="0" x2="1550" y2="800"/>
<line x1="1600" y1="0" x2="1600" y2="800"/>
<line x1="0" y1="0" x2="1600" y2="0"/>
<line x1="0" y1="50" x2="1600" y2="50"/>
<line x1="0" y1="100" x2="1600" y2="100"/>
<line x1="0" y1="150" x2="1600" y2="150"/>
<line x1="0" y1="200" x2="1600" y2="200"/>
<line x1="0" y1="250" x2="1600" y2="250"/>
<line x1="0" y1="300" x2="1600" y2="300"/>
<line x1="0" y1="350" x2="1600" y2="350"/>
<line x1="0" y1="400" x2="1600" y2="400"/>
<line x1="0" y1="450" x2="1600" y2="450"/>
<line x1="0" y1="500" x2="1600" y2="500"/>
<line x1="0" y1="550" x2="1600" y2="550"/>
<line x1="0" y1="600" x2="1600" y2="600"/>
<line x1="0" y1="650" x2="1600" y2="650"/>
<line x1="0" y1="700" x2="1600" y2="700"/>
<line x1="0" y1="750" x2="1600" y2="750"/>
<line x1="0" y1="800" x2="1600" y2="800"/>

</g>

<g opacity="0.18" stroke="url(#line)" stroke-width="2">
<line x1="230" y1="620" x2="520" y2="470"/>
<line x1="520" y1="470" x2="800" y2="400"/>
<line x1="800" y1="400" x2="1080" y2="320"/>
<line x1="1080" y1="320" x2="1370" y2="180"/>
<circle cx="230" cy="620" r="6" fill="#3B82F6"/>
<circle cx="520" cy="470" r="6" fill="#3B82F6"/>
<circle cx="800" cy="400" r="6" fill="#8B5CF6"/>
<circle cx="1080" cy="320" r="6" fill="#8B5CF6"/>
<circle cx="1370" cy="180" r="6" fill="#8B5CF6"/>
</g>

<rect x="130" y="110" width="1340" height="580" rx="32" fill="#0F172ACC" stroke="url(#line)" stroke-width="2" filter="url(#shadow)"/>

<text x="800" y="245" text-anchor="middle" fill="#F8FAFC"
font-family="Inter,Segoe UI,Arial" font-size="74" font-weight="700">
ARNAV MAHESHWARI
</text>

<text x="800" y="305" text-anchor="middle" fill="#CBD5E1"
font-family="Inter,Segoe UI,Arial" font-size="30" font-weight="500">
Software Engineer
</text>

<line x1="420" y1="350" x2="1180" y2="350" stroke="url(#line)" stroke-width="3"/>

<text x="800" y="430" text-anchor="middle" fill="#FFFFFF"
font-family="Inter,Segoe UI,Arial" font-size="46" font-weight="700">
Building Enterprise Software
</text>

<text x="800" y="490" text-anchor="middle" fill="#A78BFA"
font-family="Inter,Segoe UI,Arial" font-size="46" font-weight="700">
&amp; AI Applications
</text>

<line x1="360" y1="550" x2="1240" y2="550" stroke="#334155" stroke-width="2"/>

<text x="800" y="615" text-anchor="middle" fill="#94A3B8"
font-family="Inter,Segoe UI,Arial" font-size="24" font-weight="500">
Backend Engineering  •  Data Engineering  •  Artificial Intelligence  •  Full Stack
</text>
</svg>
